<svg width="1440" height="969" viewBox="0 0 1440 969" fill="none" xmlns="http://www.w3.org/2000/svg">
<g id="Desktop - 2" clip-path="url(#clip0_8_2)">
<rect width="1440" height="969" fill="white"/>
<g id="Group 9">
<g id="Group 1">
<path id="Ellipse 2" d="M1445.27 954.908C1470.43 1005.8 1388.18 983.138 1333.53 1010.16C1273.72 1039.74 1246.96 1116.31 1221.79 1065.42C1196.63 1014.53 1208.89 913.434 1270.61 882.917C1332.32 852.401 1420.1 904.018 1445.27 954.908Z" fill="#C7D3BF"/>
<ellipse id="Ellipse 3" cx="1161.38" cy="935.785" rx="32.3544" ry="44.0722" transform="rotate(-59.2399 1161.38 935.785)" fill="#C7D3BF"/>
<ellipse id="Ellipse 4" cx="1384.4" cy="829.977" rx="32.3545" ry="44.0738" transform="rotate(30.7601 1384.4 829.977)" fill="#C7D3BF"/>
<ellipse id="Ellipse 6" cx="1205.9" cy="844.059" rx="40.0563" ry="54.496" transform="rotate(-41.3297 1205.9 844.059)" fill="#C7D3BF"/>
<ellipse id="Ellipse 7" cx="40.0566" cy="54.4948" rx="40.0566" ry="54.4948" transform="matrix(0.98063 -0.195869 -0.195869 -0.98063 1262.23 863.476)" fill="#C7D3BF"/>
</g>
<g id="Group 5">
<path id="Ellipse 2_2" d="M296.92 377.302C290.152 387.207 285.808 369.71 275.17 362.442C263.529 354.489 246.653 357.488 253.421 347.583C260.189 337.677 280.08 329.467 292.092 337.674C304.104 345.881 303.687 367.396 296.92 377.302Z" fill="#C7D3BF"/>
<ellipse id="Ellipse 3_2" cx="271.042" cy="323.03" rx="6.83692" ry="9.31304" transform="rotate(1.41395 271.042 323.03)" fill="#C7D3BF"/>
<ellipse id="Ellipse 4_2" cx="313.629" cy="353.153" rx="6.83693" ry="9.31339" transform="rotate(91.414 313.629 353.153)" fill="#C7D3BF"/>
<ellipse id="Ellipse 6_2" cx="292.549" cy="321.732" rx="8.46444" ry="11.5157" transform="rotate(19.3242 292.549 321.732)" fill="#C7D3BF"/>
<ellipse id="Ellipse 7_2" cx="8.4645" cy="11.5155" rx="8.4645" ry="11.5155" transform="matrix(0.651326 0.758798 0.758798 -0.651326 294.806 334.119)" fill="#C7D3BF"/>
</g>
<g id="Group 8">
<path id="Ellipse 2_3" d="M54.7919 119.263C36.148 109.395 65.8613 98.3484 76.4582 78.3268C88.055 56.416 79.4806 27.5233 98.1245 37.3911C116.768 47.2588 135.041 80.392 123.075 103C111.109 125.608 73.4358 129.13 54.7919 119.263Z" fill="#C7D3BF"/>
<ellipse id="Ellipse 3_3" cx="144.504" cy="63.3293" rx="12.0216" ry="16.3754" transform="rotate(84.9638 144.504 63.3293)" fill="#C7D3BF"/>
<ellipse id="Ellipse 4_3" cx="100.285" cy="143.686" rx="12.0216" ry="16.376" transform="rotate(174.964 100.285 143.686)" fill="#C7D3BF"/>
<ellipse id="Ellipse 6_3" cx="151.02" cy="100.649" rx="14.8833" ry="20.2485" transform="rotate(102.874 151.02 100.649)" fill="#C7D3BF"/>
<ellipse id="Ellipse 7_3" cx="14.8834" cy="20.248" rx="14.8834" ry="20.248" transform="matrix(-0.680826 0.732445 0.732445 0.680826 129.823 107.04)" fill="#C7D3BF"/>
</g>
<g id="Group 7">
<path id="Ellipse 2_4" d="M1102.48 20.3642C1108.03 4.05163 1120.78 26.5872 1138.3 32.5445C1157.47 39.064 1179.66 28.4123 1174.11 44.7248C1168.57 61.0374 1144.21 80.0595 1124.43 73.3325C1104.65 66.6055 1096.93 36.6768 1102.48 20.3642Z" fill="#C7D3BF"/>
<ellipse id="Ellipse 3_4" cx="1159.19" cy="85.485" rx="9.81936" ry="13.3756" transform="rotate(165.854 1159.19 85.485)" fill="#C7D3BF"/>
<ellipse id="Ellipse 4_4" cx="1088.67" cy="60.2136" rx="9.81938" ry="13.3761" transform="rotate(-104.146 1088.67 60.2136)" fill="#C7D3BF"/>
<ellipse id="Ellipse 6_4" cx="1129.94" cy="95.5662" rx="12.1569" ry="16.5392" transform="rotate(-176.235 1129.94 95.5662)" fill="#C7D3BF"/>
<ellipse id="Ellipse 7_4" cx="12.1569" cy="16.5388" rx="12.1569" ry="16.5388" transform="matrix(-0.830996 -0.556278 -0.556278 0.830996 1122.04 79.2975)" fill="#C7D3BF"/>
</g>
<g id="Group 6">
<path id="Ellipse 2_5" d="M1395 249.407C1394.7 261.399 1381.55 249.063 1368.67 248.733C1354.58 248.373 1342.03 260.053 1342.34 248.06C1342.65 236.067 1354.9 218.375 1369.44 218.746C1383.98 219.118 1395.31 237.414 1395 249.407Z" fill="#C7D3BF"/>
<ellipse id="Ellipse 3_5" cx="1343.81" cy="217.874" rx="6.83692" ry="9.31304" transform="rotate(-31.4627 1343.81 217.874)" fill="#C7D3BF"/>
<ellipse id="Ellipse 4_5" cx="1395.93" cy="220.055" rx="6.83693" ry="9.31339" transform="rotate(58.5373 1395.93 220.055)" fill="#C7D3BF"/>
<ellipse id="Ellipse 6_5" cx="1361.17" cy="205.109" rx="8.46444" ry="11.5157" transform="rotate(-13.5525 1361.17 205.109)" fill="#C7D3BF"/>
<ellipse id="Ellipse 7_5" cx="8.4645" cy="11.5155" rx="8.4645" ry="11.5155" transform="matrix(0.95891 0.283709 0.283709 -0.95891 1369.79 214.287)" fill="#C7D3BF"/>
<g id="Group 5_2">
<path id="Ellipse 2_6" d="M938.424 786.897C930.672 796.053 928.154 778.201 918.321 769.876C907.561 760.766 890.466 762.011 898.218 752.856C905.97 743.7 926.601 737.583 937.704 746.983C948.807 756.383 946.176 777.741 938.424 786.897Z" fill="#C7D3BF"/>
<ellipse id="Ellipse 3_6" cx="918.274" cy="730.248" rx="6.83692" ry="9.31304" transform="rotate(7.32573 918.274 730.248)" fill="#C7D3BF"/>
<ellipse id="Ellipse 4_6" cx="957.531" cy="764.597" rx="6.83693" ry="9.31339" transform="rotate(97.3257 957.531 764.597)" fill="#C7D3BF"/>
<ellipse id="Ellipse 6_6" cx="939.801" cy="731.172" rx="8.46444" ry="11.5157" transform="rotate(25.2359 939.801 731.172)" fill="#C7D3BF"/>
<ellipse id="Ellipse 7_6" cx="8.4645" cy="11.5155" rx="8.4645" ry="11.5155" transform="matrix(0.569708 0.821847 0.821847 -0.569708 940.77 743.726)" fill="#C7D3BF"/>
</g>
</g>
<g id="Group 4">
<path id="Ellipse 2_7" d="M437.095 52.0169C406.114 -3.6324 499.521 17.263 559.282 -16.0074C624.683 -52.4172 650.488 -139.681 681.469 -84.0316C712.45 -28.3823 704.23 85.5692 636.747 123.138C569.265 160.707 468.076 107.666 437.095 52.0169Z" fill="#C7D3BF"/>
<ellipse id="Ellipse 3_7" cx="756.253" cy="57.926" rx="36.2979" ry="49.4439" transform="rotate(117.967 756.253 57.926)" fill="#C7D3BF"/>
<ellipse id="Ellipse 4_7" cx="512.126" cy="188.682" rx="36.298" ry="49.4458" transform="rotate(-152.033 512.126 188.682)" fill="#C7D3BF"/>
<ellipse id="Ellipse 6_7" cx="711.374" cy="163.144" rx="44.9386" ry="61.1382" transform="rotate(135.877 711.374 163.144)" fill="#C7D3BF"/>
<ellipse id="Ellipse 7_7" cx="44.9389" cy="61.1369" rx="44.9389" ry="61.1369" transform="matrix(-0.969921 0.243421 0.243421 0.969921 647.191 144.465)" fill="#C7D3BF"/>
</g>
<g id="Group 3">
<path id="Ellipse 2_8" d="M1193.61 437.067C1229.72 456.688 1171.6 477.575 1150.53 516.353C1127.48 558.791 1143.57 615.259 1107.46 595.639C1071.34 576.019 1036.45 511.083 1060.24 467.295C1084.04 423.506 1157.5 417.447 1193.61 437.067Z" fill="#C7D3BF"/>
<ellipse id="Ellipse 3_8" cx="1017.65" cy="544.122" rx="23.4206" ry="31.9028" transform="rotate(-94.4101 1017.65 544.122)" fill="#C7D3BF"/>
<ellipse id="Ellipse 4_8" cx="1105.51" cy="388.52" rx="23.4207" ry="31.904" transform="rotate(-4.41013 1105.51 388.52)" fill="#C7D3BF"/>
<ellipse id="Ellipse 6_8" cx="1005.76" cy="471.279" rx="28.9959" ry="39.4484" transform="rotate(-76.4999 1005.76 471.279)" fill="#C7D3BF"/>
<ellipse id="Ellipse 7_8" cx="28.9961" cy="39.4475" rx="28.9961" ry="39.4475" transform="matrix(0.688788 -0.724962 -0.724962 -0.688788 1047.18 459.281)" fill="#C7D3BF"/>
</g>
<g id="Group 2">
<path id="Ellipse 2_9" d="M464.454 954.611C434.741 1041.14 364.667 920.329 269.14 887.51C164.598 851.594 44.1128 906.936 73.8254 820.409C103.538 733.881 235.564 634.098 343.433 671.157C451.302 708.216 494.166 868.084 464.454 954.611Z" fill="#C7D3BF"/>
<ellipse id="Ellipse 3_9" cx="53.171" cy="71.6212" rx="53.171" ry="71.6212" transform="matrix(0.973383 -0.229183 0.253781 0.967262 83.9072 547.179)" fill="#C7D3BF"/>
<ellipse id="Ellipse 4_9" cx="52.5789" cy="72.4306" rx="52.5789" ry="72.4306" transform="matrix(0.253781 0.967262 -0.973383 0.229183 595.628 675.795)" fill="#C7D3BF"/>
<ellipse id="Ellipse 6_9" cx="66.2409" cy="87.9897" rx="66.2409" ry="87.9897" transform="matrix(0.997139 0.0755951 -0.0616274 0.998099 252.157 459.577)" fill="#C7D3BF"/>
<ellipse id="Ellipse 7_9" cx="66.2461" cy="87.981" rx="66.2461" ry="87.981" transform="matrix(0.833073 0.553163 0.564561 -0.825391 356.24 639.539)" fill="#C7D3BF"/>
</g>
</g>
<g id="Group 10">
<g id="Group 1_2">
<path id="Ellipse 2_10" d="M1445.27 954.909C1470.43 1005.8 1388.18 983.139 1333.53 1010.16C1273.72 1039.74 1246.96 1116.31 1221.79 1065.42C1196.63 1014.53 1208.9 913.434 1270.61 882.918C1332.32 852.402 1420.1 904.019 1445.27 954.909Z" fill="#C7D3BF"/>
<ellipse id="Ellipse 3_10" cx="1161.38" cy="935.786" rx="32.3544" ry="44.0722" transform="rotate(-59.2399 1161.38 935.786)" fill="#C7D3BF"/>
<ellipse id="Ellipse 4_10" cx="1384.4" cy="829.978" rx="32.3545" ry="44.0738" transform="rotate(30.7601 1384.4 829.978)" fill="#C7D3BF"/>
<ellipse id="Ellipse 6_10" cx="1205.9" cy="844.06" rx="40.0563" ry="54.496" transform="rotate(-41.3297 1205.9 844.06)" fill="#C7D3BF"/>
<ellipse id="Ellipse 7_10" cx="40.0566" cy="54.4948" rx="40.0566" ry="54.4948" transform="matrix(0.98063 -0.195869 -0.195869 -0.98063 1262.23 863.477)" fill="#C7D3BF"/>
</g>
<g id="Group 5_3">
<path id="Ellipse 2_11" d="M296.92 377.302C290.152 387.208 285.808 369.711 275.17 362.443C263.529 354.489 246.653 357.489 253.421 347.583C260.189 337.678 280.08 329.468 292.092 337.675C304.104 345.881 303.687 367.397 296.92 377.302Z" fill="#C7D3BF"/>
<ellipse id="Ellipse 3_11" cx="271.042" cy="323.03" rx="6.83692" ry="9.31304" transform="rotate(1.41395 271.042 323.03)" fill="#C7D3BF"/>
<ellipse id="Ellipse 4_11" cx="313.629" cy="353.153" rx="6.83693" ry="9.31339" transform="rotate(91.414 313.629 353.153)" fill="#C7D3BF"/>
<ellipse id="Ellipse 6_11" cx="292.549" cy="321.733" rx="8.46444" ry="11.5157" transform="rotate(19.3242 292.549 321.733)" fill="#C7D3BF"/>
<ellipse id="Ellipse 7_11" cx="8.4645" cy="11.5155" rx="8.4645" ry="11.5155" transform="matrix(0.651326 0.758798 0.758798 -0.651326 294.806 334.119)" fill="#C7D3BF"/>
</g>
<g id="Group 8_2">
<path id="Ellipse 2_12" d="M54.7919 119.263C36.148 109.395 65.8613 98.3484 76.4582 78.3269C88.055 56.4161 79.4806 27.5234 98.1245 37.3911C116.768 47.2589 135.041 80.392 123.075 103C111.109 125.608 73.4358 129.13 54.7919 119.263Z" fill="#C7D3BF"/>
<ellipse id="Ellipse 3_12" cx="144.504" cy="63.3294" rx="12.0216" ry="16.3754" transform="rotate(84.9638 144.504 63.3294)" fill="#C7D3BF"/>
<ellipse id="Ellipse 4_12" cx="100.285" cy="143.686" rx="12.0216" ry="16.376" transform="rotate(174.964 100.285 143.686)" fill="#C7D3BF"/>
<ellipse id="Ellipse 6_12" cx="151.02" cy="100.649" rx="14.8833" ry="20.2485" transform="rotate(102.874 151.02 100.649)" fill="#C7D3BF"/>
<ellipse id="Ellipse 7_12" cx="14.8834" cy="20.248" rx="14.8834" ry="20.248" transform="matrix(-0.680826 0.732445 0.732445 0.680826 129.823 107.04)" fill="#C7D3BF"/>
</g>
<g id="Group 7_2">
<path id="Ellipse 2_13" d="M1102.48 20.3649C1108.03 4.05237 1120.78 26.5879 1138.3 32.5453C1157.47 39.0648 1179.66 28.413 1174.11 44.7256C1168.57 61.0382 1144.21 80.0602 1124.43 73.3332C1104.65 66.6062 1096.93 36.6775 1102.48 20.3649Z" fill="#C7D3BF"/>
<ellipse id="Ellipse 3_13" cx="1159.19" cy="85.4857" rx="9.81936" ry="13.3756" transform="rotate(165.854 1159.19 85.4857)" fill="#C7D3BF"/>
<ellipse id="Ellipse 4_13" cx="1088.67" cy="60.2144" rx="9.81938" ry="13.3761" transform="rotate(-104.146 1088.67 60.2144)" fill="#C7D3BF"/>
<ellipse id="Ellipse 6_13" cx="1129.94" cy="95.5669" rx="12.1569" ry="16.5392" transform="rotate(-176.235 1129.94 95.5669)" fill="#C7D3BF"/>
<ellipse id="Ellipse 7_13" cx="12.1569" cy="16.5388" rx="12.1569" ry="16.5388" transform="matrix(-0.830996 -0.556278 -0.556278 0.830996 1122.04 79.2982)" fill="#C7D3BF"/>
</g>
<g id="Group 6_2">
<path id="Ellipse 2_14" d="M1395 249.407C1394.7 261.4 1381.55 249.063 1368.67 248.734C1354.58 248.374 1342.03 260.054 1342.34 248.061C1342.65 236.068 1354.9 218.375 1369.44 218.747C1383.98 219.119 1395.31 237.414 1395 249.407Z" fill="#C7D3BF"/>
<ellipse id="Ellipse 3_14" cx="1343.81" cy="217.875" rx="6.83692" ry="9.31304" transform="rotate(-31.4627 1343.81 217.875)" fill="#C7D3BF"/>
<ellipse id="Ellipse 4_14" cx="1395.93" cy="220.056" rx="6.83693" ry="9.31339" transform="rotate(58.5373 1395.93 220.056)" fill="#C7D3BF"/>
<ellipse id="Ellipse 6_14" cx="1361.17" cy="205.11" rx="8.46444" ry="11.5157" transform="rotate(-13.5525 1361.17 205.11)" fill="#C7D3BF"/>
<ellipse id="Ellipse 7_14" cx="8.4645" cy="11.5155" rx="8.4645" ry="11.5155" transform="matrix(0.95891 0.283709 0.283709 -0.95891 1369.79 214.288)" fill="#C7D3BF"/>
<g id="Group 5_4">
<path id="Ellipse 2_15" d="M938.424 786.897C930.672 796.053 928.154 778.201 918.321 769.877C907.561 760.767 890.466 762.012 898.218 752.856C905.97 743.7 926.601 737.583 937.704 746.983C948.807 756.384 946.176 777.741 938.424 786.897Z" fill="#C7D3BF"/>
<ellipse id="Ellipse 3_15" cx="918.274" cy="730.249" rx="6.83692" ry="9.31304" transform="rotate(7.32573 918.274 730.249)" fill="#C7D3BF"/>
<ellipse id="Ellipse 4_15" cx="957.531" cy="764.598" rx="6.83693" ry="9.31339" transform="rotate(97.3257 957.531 764.598)" fill="#C7D3BF"/>
<ellipse id="Ellipse 6_15" cx="939.801" cy="731.173" rx="8.46444" ry="11.5157" transform="rotate(25.2359 939.801 731.173)" fill="#C7D3BF"/>
<ellipse id="Ellipse 7_15" cx="8.4645" cy="11.5155" rx="8.4645" ry="11.5155" transform="matrix(0.569708 0.821847 0.821847 -0.569708 940.77 743.726)" fill="#C7D3BF"/>
</g>
</g>
<g id="Group 4_2">
<path id="Ellipse 2_16" d="M437.095 52.0176C406.114 -3.63166 499.521 17.2638 559.282 -16.0066C624.683 -52.4165 650.488 -139.68 681.469 -84.0308C712.45 -28.3816 704.23 85.57 636.747 123.139C569.265 160.707 468.076 107.667 437.095 52.0176Z" fill="#C7D3BF"/>
<ellipse id="Ellipse 3_16" cx="756.253" cy="57.9267" rx="36.2979" ry="49.4439" transform="rotate(117.967 756.253 57.9267)" fill="#C7D3BF"/>
<ellipse id="Ellipse 4_16" cx="512.126" cy="188.682" rx="36.298" ry="49.4458" transform="rotate(-152.033 512.126 188.682)" fill="#C7D3BF"/>
<ellipse id="Ellipse 6_16" cx="711.374" cy="163.145" rx="44.9386" ry="61.1382" transform="rotate(135.877 711.374 163.145)" fill="#C7D3BF"/>
<ellipse id="Ellipse 7_16" cx="44.9389" cy="61.1369" rx="44.9389" ry="61.1369" transform="matrix(-0.969921 0.243421 0.243421 0.969921 647.191 144.466)" fill="#C7D3BF"/>
</g>
<g id="Group 3_2">
<path id="Ellipse 2_17" d="M1193.61 437.068C1229.72 456.688 1171.6 477.575 1150.53 516.354C1127.48 558.791 1143.57 615.26 1107.46 595.64C1071.34 576.019 1036.45 511.084 1060.24 467.295C1084.04 423.507 1157.5 417.448 1193.61 437.068Z" fill="#C7D3BF"/>
<ellipse id="Ellipse 3_17" cx="1017.65" cy="544.122" rx="23.4206" ry="31.9028" transform="rotate(-94.4101 1017.65 544.122)" fill="#C7D3BF"/>
<ellipse id="Ellipse 4_17" cx="1105.51" cy="388.52" rx="23.4207" ry="31.904" transform="rotate(-4.41013 1105.51 388.52)" fill="#C7D3BF"/>
<ellipse id="Ellipse 6_17" cx="1005.76" cy="471.28" rx="28.9959" ry="39.4484" transform="rotate(-76.4999 1005.76 471.28)" fill="#C7D3BF"/>
<ellipse id="Ellipse 7_17" cx="28.9961" cy="39.4475" rx="28.9961" ry="39.4475" transform="matrix(0.688788 -0.724962 -0.724962 -0.688788 1047.18 459.282)" fill="#C7D3BF"/>
</g>
<g id="Group 2_2">
<path id="Ellipse 2_18" d="M464.454 954.612C434.741 1041.14 364.667 920.329 269.14 887.51C164.598 851.595 44.1128 906.937 73.8254 820.409C103.538 733.882 235.564 634.099 343.433 671.158C451.302 708.217 494.166 868.084 464.454 954.612Z" fill="#C7D3BF"/>
<ellipse id="Ellipse 3_18" cx="53.171" cy="71.6212" rx="53.171" ry="71.6212" transform="matrix(0.973383 -0.229183 0.253781 0.967262 83.9072 547.18)" fill="#C7D3BF"/>
<ellipse id="Ellipse 4_18" cx="52.5789" cy="72.4306" rx="52.5789" ry="72.4306" transform="matrix(0.253781 0.967262 -0.973383 0.229183 595.628 675.796)" fill="#C7D3BF"/>
<ellipse id="Ellipse 6_18" cx="66.2409" cy="87.9897" rx="66.2409" ry="87.9897" transform="matrix(0.997139 0.0755951 -0.0616274 0.998099 252.157 459.578)" fill="#C7D3BF"/>
<ellipse id="Ellipse 7_18" cx="66.2461" cy="87.981" rx="66.2461" ry="87.981" transform="matrix(0.833073 0.553163 0.564561 -0.825391 356.24 639.54)" fill="#C7D3BF"/>
</g>
</g>
</g>
<defs>
<clipPath id="clip0_8_2">
<rect width="1440" height="969" fill="white"/>
</clipPath>
</defs>
</svg>
