<svg width="1440" height="969" viewBox="0 0 1440 969" fill="none" xmlns="http://www.w3.org/2000/svg">
<g id="Desktop - 2" clip-path="url(#clip0_8_2)">
<rect width="1440" height="969" fill="white"/>
<g id="Group 1">
<path id="Ellipse 2" d="M1432.27 823.907C1457.43 874.797 1375.18 852.137 1320.53 879.162C1260.72 908.737 1233.96 985.307 1208.79 934.417C1183.63 883.527 1195.89 782.433 1257.61 751.917C1319.32 721.4 1407.1 773.017 1432.27 823.907Z" fill="#C7D3BF"/>
<ellipse id="Ellipse 3" cx="1148.38" cy="804.784" rx="32.3544" ry="44.0722" transform="rotate(-59.2399 1148.38 804.784)" fill="#C7D3BF"/>
<ellipse id="Ellipse 4" cx="1371.4" cy="698.976" rx="32.3545" ry="44.0738" transform="rotate(30.7601 1371.4 698.976)" fill="#C7D3BF"/>
<ellipse id="Ellipse 6" cx="1192.9" cy="713.058" rx="40.0563" ry="54.496" transform="rotate(-41.3297 1192.9 713.058)" fill="#C7D3BF"/>
<ellipse id="Ellipse 7" cx="40.0566" cy="54.4948" rx="40.0566" ry="54.4948" transform="matrix(0.98063 -0.195869 -0.195869 -0.98063 1249.23 732.475)" fill="#C7D3BF"/>
</g>
<g id="Group 5">
<path id="Ellipse 2_2" d="M300.92 325.301C294.152 335.206 289.808 317.709 279.17 310.441C267.529 302.488 250.653 305.487 257.421 295.582C264.189 285.676 284.08 277.467 296.092 285.673C308.104 293.88 307.687 315.395 300.92 325.301Z" fill="#C7D3BF"/>
<ellipse id="Ellipse 3_2" cx="275.042" cy="271.029" rx="6.83692" ry="9.31304" transform="rotate(1.41395 275.042 271.029)" fill="#C7D3BF"/>
<ellipse id="Ellipse 4_2" cx="317.629" cy="301.152" rx="6.83693" ry="9.31339" transform="rotate(91.414 317.629 301.152)" fill="#C7D3BF"/>
<ellipse id="Ellipse 6_2" cx="296.549" cy="269.731" rx="8.46444" ry="11.5157" transform="rotate(19.3242 296.549 269.731)" fill="#C7D3BF"/>
<ellipse id="Ellipse 7_2" cx="8.4645" cy="11.5155" rx="8.4645" ry="11.5155" transform="matrix(0.651326 0.758798 0.758798 -0.651326 298.806 282.118)" fill="#C7D3BF"/>
</g>
<g id="Group 8">
<path id="Ellipse 2_3" d="M54.7919 119.263C36.148 109.395 65.8613 98.3484 76.4582 78.3269C88.055 56.4161 79.4806 27.5234 98.1245 37.3911C116.768 47.2589 135.041 80.392 123.075 103C111.109 125.608 73.4358 129.13 54.7919 119.263Z" fill="#C7D3BF"/>
<ellipse id="Ellipse 3_3" cx="144.504" cy="63.3294" rx="12.0216" ry="16.3754" transform="rotate(84.9638 144.504 63.3294)" fill="#C7D3BF"/>
<ellipse id="Ellipse 4_3" cx="100.285" cy="143.686" rx="12.0216" ry="16.376" transform="rotate(174.964 100.285 143.686)" fill="#C7D3BF"/>
<ellipse id="Ellipse 6_3" cx="151.02" cy="100.649" rx="14.8833" ry="20.2485" transform="rotate(102.874 151.02 100.649)" fill="#C7D3BF"/>
<ellipse id="Ellipse 7_3" cx="14.8834" cy="20.248" rx="14.8834" ry="20.248" transform="matrix(-0.680826 0.732445 0.732445 0.680826 129.823 107.04)" fill="#C7D3BF"/>
</g>
<g id="Group 7">
<path id="Ellipse 2_4" d="M956.203 96.8541C961.75 80.5415 974.502 103.077 992.02 109.034C1011.19 115.554 1033.38 104.902 1027.84 121.215C1022.29 137.527 997.93 156.549 978.149 149.822C958.368 143.095 950.656 113.167 956.203 96.8541Z" fill="#C7D3BF"/>
<ellipse id="Ellipse 3_4" cx="1012.91" cy="161.975" rx="9.81936" ry="13.3756" transform="rotate(165.854 1012.91 161.975)" fill="#C7D3BF"/>
<ellipse id="Ellipse 4_4" cx="942.388" cy="136.704" rx="9.81938" ry="13.3761" transform="rotate(-104.146 942.388 136.704)" fill="#C7D3BF"/>
<ellipse id="Ellipse 6_4" cx="983.659" cy="172.056" rx="12.1569" ry="16.5392" transform="rotate(-176.235 983.659 172.056)" fill="#C7D3BF"/>
<ellipse id="Ellipse 7_4" cx="12.1569" cy="16.5388" rx="12.1569" ry="16.5388" transform="matrix(-0.830996 -0.556278 -0.556278 0.830996 975.763 155.787)" fill="#C7D3BF"/>
</g>
<g id="Group 6">
<g id="Group 68">
<path id="Ellipse 2_5" d="M1346 127.406C1345.7 139.399 1332.55 127.062 1319.67 126.732C1305.58 126.372 1293.03 138.052 1293.34 126.059C1293.65 114.066 1305.9 96.3738 1320.44 96.7456C1334.98 97.1175 1346.31 115.413 1346 127.406Z" fill="#C7D3BF"/>
<ellipse id="Ellipse 3_5" cx="1294.81" cy="95.8732" rx="6.83692" ry="9.31304" transform="rotate(-31.4627 1294.81 95.8732)" fill="#C7D3BF"/>
<ellipse id="Ellipse 4_5" cx="1346.93" cy="98.0543" rx="6.83693" ry="9.31339" transform="rotate(58.5373 1346.93 98.0543)" fill="#C7D3BF"/>
<ellipse id="Ellipse 6_5" cx="1312.17" cy="83.1086" rx="8.46444" ry="11.5157" transform="rotate(-13.5525 1312.17 83.1086)" fill="#C7D3BF"/>
<ellipse id="Ellipse 7_5" cx="8.4645" cy="11.5155" rx="8.4645" ry="11.5155" transform="matrix(0.95891 0.283709 0.283709 -0.95891 1320.79 92.2863)" fill="#C7D3BF"/>
</g>
<g id="Group 5_2">
<path id="Ellipse 2_6" d="M881.424 693.896C873.672 703.052 871.154 685.2 861.321 676.875C850.561 667.765 833.466 669.011 841.218 659.855C848.97 650.699 869.601 644.582 880.704 653.982C891.807 663.382 889.176 684.74 881.424 693.896Z" fill="#C7D3BF"/>
<ellipse id="Ellipse 3_6" cx="861.274" cy="637.247" rx="6.83692" ry="9.31304" transform="rotate(7.32573 861.274 637.247)" fill="#C7D3BF"/>
<ellipse id="Ellipse 4_6" cx="900.531" cy="671.596" rx="6.83693" ry="9.31339" transform="rotate(97.3257 900.531 671.596)" fill="#C7D3BF"/>
<ellipse id="Ellipse 6_6" cx="882.801" cy="638.171" rx="8.46444" ry="11.5157" transform="rotate(25.2359 882.801 638.171)" fill="#C7D3BF"/>
<ellipse id="Ellipse 7_6" cx="8.4645" cy="11.5155" rx="8.4645" ry="11.5155" transform="matrix(0.569708 0.821847 0.821847 -0.569708 883.77 650.725)" fill="#C7D3BF"/>
</g>
</g>
<g id="Group 4">
<path id="Ellipse 2_7" d="M466.954 134.855C443.129 83.8292 524.194 108.129 578.99 82.5433C638.957 54.5435 667.201 -20.7946 691.026 30.2315C714.852 81.2575 700.438 181.238 638.562 210.129C576.687 239.02 490.779 185.881 466.954 134.855Z" fill="#C7D3BF"/>
<ellipse id="Ellipse 3_7" cx="748.057" cy="160.129" rx="32.0933" ry="43.7166" transform="rotate(122.044 748.057 160.129)" fill="#C7D3BF"/>
<ellipse id="Ellipse 4_7" cx="524.535" cy="260.1" rx="32.0934" ry="43.7182" transform="rotate(-147.956 524.535 260.1)" fill="#C7D3BF"/>
<ellipse id="Ellipse 6_7" cx="701.863" cy="250.102" rx="39.7331" ry="54.0563" transform="rotate(139.954 701.863 250.102)" fill="#C7D3BF"/>
<ellipse id="Ellipse 7_7" cx="39.7334" cy="54.0551" rx="39.7334" ry="54.0551" transform="matrix(-0.984772 0.173849 0.173849 0.984772 646.433 229.595)" fill="#C7D3BF"/>
</g>
<g id="Group 3">
<path id="Ellipse 2_8" d="M1276.61 364.066C1312.72 383.687 1254.6 404.574 1233.53 443.352C1210.48 485.79 1226.57 542.258 1190.46 522.638C1154.34 503.018 1119.45 438.082 1143.24 394.294C1167.04 350.505 1240.5 344.446 1276.61 364.066Z" fill="#C7D3BF"/>
<ellipse id="Ellipse 3_8" cx="1100.65" cy="471.121" rx="23.4206" ry="31.9028" transform="rotate(-94.4101 1100.65 471.121)" fill="#C7D3BF"/>
<ellipse id="Ellipse 4_8" cx="1188.51" cy="315.519" rx="23.4207" ry="31.904" transform="rotate(-4.41013 1188.51 315.519)" fill="#C7D3BF"/>
<ellipse id="Ellipse 6_8" cx="1088.76" cy="398.278" rx="28.9959" ry="39.4484" transform="rotate(-76.4999 1088.76 398.278)" fill="#C7D3BF"/>
<ellipse id="Ellipse 7_8" cx="28.9961" cy="39.4475" rx="28.9961" ry="39.4475" transform="matrix(0.688788 -0.724962 -0.724962 -0.688788 1130.18 386.28)" fill="#C7D3BF"/>
</g>
<g id="Group 2">
<path id="Ellipse 2_9" d="M486.454 912.61C456.741 999.137 386.667 878.328 291.14 845.509C186.598 809.593 66.1128 864.935 95.8254 778.408C125.538 691.881 257.564 592.097 365.433 629.156C473.302 666.215 516.166 826.083 486.454 912.61Z" fill="#C7D3BF"/>
<ellipse id="Ellipse 3_9" cx="53.171" cy="71.6212" rx="53.171" ry="71.6212" transform="matrix(0.973383 -0.229183 0.253781 0.967262 105.907 505.179)" fill="#C7D3BF"/>
<ellipse id="Ellipse 4_9" cx="52.5789" cy="72.4306" rx="52.5789" ry="72.4306" transform="matrix(0.253781 0.967262 -0.973383 0.229183 617.628 633.794)" fill="#C7D3BF"/>
<ellipse id="Ellipse 6_9" cx="66.2409" cy="87.9897" rx="66.2409" ry="87.9897" transform="matrix(0.997139 0.0755951 -0.0616274 0.998099 274.157 417.576)" fill="#C7D3BF"/>
<ellipse id="Ellipse 7_9" cx="66.2461" cy="87.981" rx="66.2461" ry="87.981" transform="matrix(0.833073 0.553163 0.564561 -0.825391 378.24 597.538)" fill="#C7D3BF"/>
</g>
</g>
<defs>
<clipPath id="clip0_8_2">
<rect width="1440" height="969" fill="white"/>
</clipPath>
</defs>
</svg>
